<svg width="50" height="50" fill="none" xmlns="http://www.w3.org/2000/svg"><path d="M36.051 17.067c.763.763.763 2 0 2.763L22.948 32.933a1.954 1.954 0 01-2.762 0l-6.237-6.238a1.953 1.953 0 112.762-2.762l4.856 4.857L33.29 17.066c.763-.762 2-.762 2.762 0zM50 25c0 13.819-11.183 25-25 25C11.181 50 0 38.817 0 25 0 11.181 11.183 0 25 0c13.819 0 25 11.183 25 25zm-3.906 0c0-11.66-9.436-21.094-21.094-21.094C13.34 3.906 3.906 13.342 3.906 25c0 11.66 9.436 21.094 21.094 21.094 11.66 0 21.094-9.436 21.094-21.094z" fill="url(#paint0_linear)"/><defs><linearGradient id="paint0_linear" x1="0" y1="7.108" x2="45.098" y2="48.284" gradientUnits="userSpaceOnUse"><stop stop-color="#CF6477"/><stop offset="1" stop-color="#FFC592"/></linearGradient></defs></svg>