<svg width="37" height="45" fill="none" xmlns="http://www.w3.org/2000/svg"><path d="M9.074 28.952c0-.748-.519-1.193-1.434-1.193a3.2 3.2 0 00-.759.072v2.398a2.9 2.9 0 00.615.047c.975 0 1.578-.493 1.578-1.324z" fill="url(#paint0_linear)"/><path d="M14.738 27.784c-.41 0-.675.035-.831.072v5.31c.156.037.41.037.638.037 1.662.012 2.746-.903 2.746-2.842.012-1.686-.976-2.577-2.553-2.577z" fill="url(#paint1_linear)"/><path d="M25.261 0H7.187c-2.64 0-4.79 2.15-4.79 4.79V22.5H1.93A1.93 1.93 0 000 24.43v11.704a1.93 1.93 0 001.93 1.93h.468v2.147A4.795 4.795 0 007.188 45h24.66a4.795 4.795 0 004.788-4.79V11.336L25.261 0zM5.063 26.542c.566-.095 1.36-.167 2.48-.167 1.133 0 1.94.216 2.482.65.517.409.867 1.084.867 1.878 0 .794-.265 1.47-.747 1.927-.626.59-1.553.855-2.637.855a4.74 4.74 0 01-.627-.036v2.903H5.063v-8.01zm26.785 15.525H7.188a1.858 1.858 0 01-1.856-1.856v-2.147h22.99a1.93 1.93 0 001.93-1.93V24.43a1.93 1.93 0 00-1.93-1.93H5.331V4.79c0-1.021.833-1.854 1.855-1.854l16.977-.018v6.275a3.323 3.323 0 003.321 3.322l6.147-.018.07 27.713a1.857 1.857 0 01-1.854 1.857zm-19.784-7.552v-7.973c.675-.107 1.553-.167 2.481-.167 1.542 0 2.541.276 3.324.866.843.627 1.373 1.625 1.373 3.06 0 1.553-.566 2.625-1.35 3.287-.854.71-2.155 1.047-3.744 1.047-.952 0-1.626-.06-2.084-.12zm13.144-4.72v1.493h-2.915v3.264h-1.842v-8.117h4.962v1.505h-3.12v1.855h2.915z" fill="url(#paint2_linear)"/><defs><linearGradient id="paint0_linear" x1="6.881" y1="28.117" x2="9.102" y2="29.883" gradientUnits="userSpaceOnUse"><stop stop-color="#CF6477"/><stop offset="1" stop-color="#FFC592"/></linearGradient><linearGradient id="paint1_linear" x1="13.907" y1="28.554" x2="18.131" y2="30.963" gradientUnits="userSpaceOnUse"><stop stop-color="#CF6477"/><stop offset="1" stop-color="#FFC592"/></linearGradient><linearGradient id="paint2_linear" x1="0" y1="6.397" x2="39.027" y2="35.407" gradientUnits="userSpaceOnUse"><stop stop-color="#CF6477"/><stop offset="1" stop-color="#FFC592"/></linearGradient></defs></svg>